<?xml version="1.0" encoding="utf-8"?>
<svg width="2128" height="2152" viewBox="0 0 2128 2152" version="1.2" baseProfile="tiny-ps" xmlns="http://www.w3.org/2000/svg">
  <title>PortoSanto ONE</title>
  <path d="M 1101.834 392.567 C 1087.939 395.081, 1075.940 400.452, 1063.452 409.749 C 1046.626 422.274, 1034.466 439.693, 1027.090 461.837 C 1022.178 476.582, 1021.002 485.735, 1020.847 510.421 C 1020.727 529.616, 1020.993 533.846, 1022.884 542.802 C 1032.089 586.399, 1060.147 617.515, 1099.500 627.766 C 1110.651 630.671, 1113.309 630.893, 1150.500 632.027 C 1187.991 633.169, 1264.077 636.511, 1286.500 638.001 C 1380.951 644.277, 1413.641 647.067, 1504 656.564 C 1558.113 662.251, 1591.648 666.673, 1659.500 677.069 C 1683.988 680.821, 1707.257 684.749, 1768.392 695.452 C 1809.311 702.616, 1856.167 712.543, 1924.500 728.526 C 1953.278 735.257, 1967.548 736.575, 1977.626 733.433 C 1985.579 730.953, 1993.824 722.870, 1996.290 715.135 C 2000.339 702.433, 1997.602 686.783, 1987.635 665.653 C 1968.723 625.559, 1938.606 590.773, 1900.500 565.011 C 1888.793 557.097, 1877.613 551.607, 1852 541.196 C 1757.023 502.591, 1637.317 465.799, 1535.500 443.916 C 1445.073 424.482, 1390.185 415.441, 1302.500 405.537 C 1261.224 400.874, 1205.755 396.009, 1171.500 394.046 C 1110.258 390.536, 1112.762 390.589, 1101.834 392.567 M 930 758.080 C 735.810 762.218, 514.496 778.163, 347 800.083 C 239.625 814.136, 154.216 827.181, 140.500 831.625 C 106.686 842.579, 78.431 867.284, 63.060 899.333 C 50.772 924.953, 46.570 960.171, 53.291 981.199 C 60.779 1004.628, 78.961 1023.026, 100.060 1028.525 C 112.584 1031.790, 117.804 1031.950, 163.500 1030.481 C 203.078 1029.208, 251.098 1028.028, 426.500 1024.017 C 468.152 1023.065, 523.009 1022.108, 664 1019.876 C 701.125 1019.288, 862.450 1018.628, 1022.500 1018.411 C 1223.706 1018.137, 1315.660 1017.682, 1320.500 1016.936 C 1365.279 1010.038, 1400.496 969.053, 1406.061 917.361 C 1407.479 904.194, 1405.845 873.523, 1402.994 859.801 C 1393.957 816.293, 1367.202 782.310, 1330.500 767.721 C 1312.739 760.662, 1307.552 760.277, 1199.500 758.018 C 1145.553 756.890, 984.103 756.927, 930 758.080 M 1956 1433.013 C 1952.975 1433.426, 1942.625 1435.593, 1933 1437.829 C 1882.662 1449.521, 1789.642 1468.995, 1753.500 1475.407 C 1658.227 1492.310, 1537.432 1508.975, 1456 1516.450 C 1317.130 1529.197, 1223.471 1534.128, 1067 1536.927 C 1014.663 1537.864, 1012.658 1538.120, 996.185 1545.995 C 977.460 1554.946, 964.190 1567.010, 953.872 1584.461 C 941.539 1605.321, 937.847 1619.713, 937.961 1646.500 C 938.102 1679.943, 941.586 1697.320, 952.497 1719 C 968.252 1750.307, 992.814 1769.520, 1024.888 1775.627 C 1032.355 1777.049, 1038.750 1777.182, 1073 1776.632 C 1107.692 1776.075, 1158.518 1774.162, 1182.500 1772.511 C 1315.117 1763.378, 1386.947 1754.006, 1504.705 1730.473 C 1559.880 1719.446, 1595.393 1710.754, 1663.615 1691.580 C 1698.035 1681.906, 1704.372 1679.894, 1760.500 1660.821 C 1808.928 1644.365, 1872.947 1619.195, 1887.373 1610.939 C 1919.897 1592.326, 1950.024 1564.047, 1971.470 1532 C 1978.021 1522.211, 1991.693 1494.784, 1995.148 1484.500 C 1997.075 1478.764, 1997.500 1475.423, 1997.500 1466 C 1997.500 1455.451, 1997.278 1454.079, 1994.814 1449.410 C 1989.962 1440.214, 1981.660 1434.665, 1970.294 1433.022 C 1966.557 1432.482, 1963.050 1432.090, 1962.500 1432.151 C 1961.950 1432.212, 1959.025 1432.600, 1956 1433.013 M 1848.790 1692.933 C 1845.649 1693.937, 1825.399 1703.554, 1803.790 1714.305 C 1782.180 1725.055, 1758.425 1736.533, 1751 1739.812 C 1743.575 1743.092, 1728.950 1749.578, 1718.500 1754.228 C 1643.418 1787.632, 1545.778 1820.896, 1450.758 1845.440 C 1431.662 1850.373, 1426.752 1852.073, 1416.268 1857.387 C 1398.397 1866.444, 1376.377 1886.252, 1365.328 1903.209 C 1358.387 1913.860, 1349.454 1931.703, 1346.080 1941.654 C 1337.816 1966.024, 1333.769 2000.836, 1337.402 2016.314 C 1339.639 2025.849, 1343.657 2033.546, 1349.500 2039.494 C 1357.399 2047.534, 1360.208 2048.505, 1375.500 2048.474 L 1388.500 2048.449 1409.500 2039.869 C 1451.492 2022.713, 1468.081 2015.303, 1500.295 1999.309 C 1539.355 1979.916, 1547.128 1975.680, 1582.810 1954.345 C 1610.711 1937.661, 1653.480 1909.491, 1671.468 1895.947 C 1676.986 1891.793, 1688.700 1882.963, 1697.500 1876.326 C 1718.390 1860.570, 1734.116 1846.698, 1763.623 1818 C 1820.138 1763.035, 1859.945 1716.925, 1864.096 1701.616 C 1866.706 1691.990, 1861.312 1688.930, 1848.790 1692.933" stroke="none" fill="#f44b1c" fill-rule="evenodd" />
  <path d="M 989 66.084 C 892.322 74.411, 810.021 91.228, 723.500 120.336 C 662.858 140.737, 603.662 166.627, 554.500 194.247 C 495.023 227.663, 436.428 266.952, 391 303.875 C 354.533 333.514, 277.659 412.141, 254.411 443.577 C 248.355 451.765, 242 464.152, 242 467.767 C 242 470.539, 246.160 475, 248.744 475 C 254.472 475, 265.645 470.239, 294.403 455.547 C 369.382 417.238, 432.436 390.969, 518.500 362.186 C 604.731 333.347, 692.126 312.188, 785.500 297.544 C 847.565 287.811, 914.817 280.958, 981.500 277.572 C 1051.865 273.999, 1050.438 274.183, 1066.500 266.593 C 1093.964 253.614, 1113.027 225.776, 1116.950 192.919 C 1119.257 173.599, 1115.594 139.788, 1109.417 123.376 C 1098.522 94.432, 1076.076 71.898, 1051.661 65.398 C 1044.422 63.471, 1015.691 63.785, 989 66.084 M 1238.159 84.166 C 1216.039 87.294, 1198.743 106.018, 1192.348 133.760 C 1189.370 146.675, 1190.416 175.115, 1194.637 196 C 1201.184 228.400, 1221.062 258.352, 1247.418 275.532 C 1263.556 286.051, 1273.714 289.309, 1309.611 295.477 C 1415.954 313.749, 1506.146 336.891, 1602 370.499 C 1673.207 395.466, 1720.602 415.527, 1790.150 450.140 C 1842.621 476.253, 1846.449 477.641, 1851.646 472.445 C 1853.809 470.282, 1854.097 469.330, 1853.519 466.250 C 1851.418 455.048, 1838.546 437.673, 1806.778 403.157 C 1787.265 381.954, 1747.718 342.165, 1728.985 324.887 C 1692.921 291.625, 1634.952 249.791, 1576.358 214.744 C 1534.745 189.854, 1513.217 178.415, 1470.984 158.752 C 1412.804 131.665, 1337.776 105.044, 1274.500 89.037 C 1253.237 83.658, 1247.341 82.867, 1238.159 84.166 M 813.500 400.102 C 634.276 422.314, 465.940 460.968, 324.026 512.497 C 289.128 525.169, 240.617 544.189, 228.500 549.950 C 217.581 555.141, 199.077 567.055, 186.500 576.991 C 175.308 585.833, 155.933 605.660, 146.833 617.585 C 132.029 636.985, 118.972 660.403, 112.311 679.500 C 109.861 686.526, 109.520 688.962, 109.510 699.500 C 109.501 710.602, 109.701 711.881, 112.186 716.590 C 115.330 722.549, 120.576 727.450, 126.949 730.383 C 130.766 732.139, 133.435 732.477, 143.500 732.477 C 154.852 732.477, 157.011 732.115, 183.500 725.778 C 290.915 700.079, 428.300 675.618, 552.500 660.080 C 649.783 647.909, 708.635 642.102, 796 636.055 C 829.182 633.758, 838.469 631.853, 854.546 624.044 C 887.104 608.229, 909.563 577.750, 918.178 537.688 C 920.108 528.715, 920.374 524.400, 920.407 501.500 C 920.442 476.371, 920.354 475.173, 917.772 465.723 C 914.899 455.206, 908.127 439.951, 903.063 432.592 C 898.123 425.412, 889.184 416.230, 882.570 411.542 C 863.754 398.204, 848.799 395.727, 813.500 400.102 M 1557.500 777.039 C 1519.822 781.169, 1490.566 814.806, 1484.776 860.655 C 1483.243 872.790, 1485.113 911.438, 1487.865 924.500 C 1499.083 977.745, 1537.521 1016.354, 1582.500 1019.556 C 1586.350 1019.830, 1634.275 1020.950, 1689 1022.046 C 1743.725 1023.141, 1833.534 1025.388, 1888.575 1027.040 C 1993.369 1030.184, 1995.863 1030.166, 2008.739 1026.158 C 2031.490 1019.077, 2050.643 997.827, 2056.050 973.667 C 2057.936 965.241, 2056.732 932.514, 2054.186 923 C 2049.684 906.174, 2043.618 892.228, 2035.771 880.667 C 2019.963 857.375, 1994.057 837.645, 1968 829.055 C 1953.228 824.185, 1847.536 808.328, 1741.500 795.074 C 1692.561 788.956, 1569.372 775.691, 1565.639 776.136 C 1565.012 776.210, 1561.350 776.617, 1557.500 777.039 M 91.230 1136.015 C 59.312 1144.378, 37.989 1173.228, 38.025 1208 C 38.042 1224.164, 41.298 1242.516, 46.718 1257 C 57.655 1286.225, 81.167 1312.449, 109 1326.466 C 127.027 1335.545, 136.421 1337.608, 209 1348.428 C 367.421 1372.046, 524.642 1388.234, 704.500 1399.447 C 803.190 1405.600, 975.018 1411.268, 993.786 1408.989 C 1006.677 1407.424, 1016.337 1404.478, 1027.203 1398.796 C 1060.143 1381.570, 1082.821 1348.382, 1088.562 1309 C 1090.924 1292.796, 1090.113 1256.855, 1087.066 1242.756 C 1080.509 1212.404, 1064.436 1186.585, 1041 1168.756 C 1032.358 1162.182, 1014.527 1153.567, 1004 1150.880 C 995.599 1148.735, 994.095 1148.701, 875 1147.942 C 623.976 1146.341, 385.934 1142.133, 170.500 1135.486 C 108.249 1133.566, 100.377 1133.618, 91.230 1136.015 M 1940 1135.086 C 1817.649 1139.472, 1523.342 1145.393, 1372 1146.514 C 1295.932 1147.077, 1280.466 1147.686, 1269.486 1150.546 C 1228.449 1161.234, 1197.143 1196.514, 1186.974 1243.533 C 1183.998 1257.293, 1183.073 1295.637, 1185.358 1310.500 C 1189.684 1338.634, 1200.354 1360.525, 1218.503 1378.500 C 1229.363 1389.256, 1239.925 1395.873, 1253.841 1400.637 C 1270.253 1406.257, 1274.499 1406.315, 1352.500 1401.997 C 1548.156 1391.165, 1744.838 1370.842, 1919.500 1343.409 C 1959.869 1337.069, 1966.419 1335.573, 1980.006 1329.593 C 1994.430 1323.245, 2005.842 1315.251, 2018.607 1302.550 C 2044.873 1276.418, 2056.995 1246.874, 2056.999 1208.980 C 2057 1192.914, 2055.400 1184.829, 2049.960 1173.422 C 2041.526 1155.734, 2023.441 1140.844, 2004.513 1136.003 C 1995.838 1133.785, 1981.859 1133.586, 1940 1135.086 M 136.716 1431.140 C 125.144 1432.734, 117.109 1438.101, 112.222 1447.500 C 108.819 1454.045, 107.964 1468.283, 110.409 1477.677 C 114.061 1491.708, 124.488 1513.387, 136.061 1531.011 C 154.654 1559.327, 177.187 1581.490, 208.500 1602.261 C 223.067 1611.924, 227.155 1614.021, 248.899 1622.987 C 377.088 1675.845, 553.428 1724.722, 703.565 1749.009 C 759.687 1758.088, 767.521 1758.874, 779.064 1756.581 C 800.084 1752.406, 816.800 1739.501, 827.940 1718.849 C 838.412 1699.434, 841.896 1680.816, 840.020 1654.294 C 837.973 1625.367, 834.635 1610.611, 825.991 1592.285 C 810.821 1560.126, 785.875 1537.277, 755.500 1527.719 C 746.289 1524.821, 737.960 1523.512, 719 1521.982 C 698.081 1520.294, 667.082 1517.313, 625 1512.944 C 465.955 1496.428, 333.905 1474.222, 188.500 1439.538 C 151.693 1430.759, 146.086 1429.850, 136.716 1431.140 M 244 1691 C 241.483 1693.517, 241.489 1695.558, 244.033 1702.358 C 249.488 1716.940, 266.770 1737.795, 314.157 1786.982 C 343.295 1817.228, 376.004 1848.173, 392.500 1861.101 C 459.255 1913.419, 522.468 1954.180, 586 1985.874 C 707.733 2046.602, 821.625 2079.547, 956.350 2093.005 C 1026.658 2100.028, 1146.414 2099.153, 1174.500 2091.411 C 1210.293 2081.545, 1238.896 2049.697, 1251.441 2005.739 C 1258.052 1982.576, 1259.624 1951.295, 1254.996 1935 C 1247.345 1908.062, 1228.141 1889.737, 1202.015 1884.443 C 1194.436 1882.907, 1191.282 1882.848, 1171.531 1883.873 C 1102.051 1887.476, 1023.291 1887.332, 957 1883.480 C 817.043 1875.347, 686.649 1852.762, 558.500 1814.458 C 473.041 1788.914, 369.901 1747.314, 289.312 1705.884 C 255.911 1688.713, 248.667 1686.333, 244 1691" stroke="none" fill="#242b83" fill-rule="evenodd" />
</svg>